<?xml version="1.0" encoding="UTF-8" standalone="no"?>
<!DOCTYPE svg PUBLIC "-//W3C//DTD SVG 1.1//EN" "http://www.w3.org/Graphics/SVG/1.1/DTD/svg11.dtd">
<svg width="100%" height="100%" viewBox="0 0 448 512" version="1.1" xmlns="http://www.w3.org/2000/svg" xmlns:xlink="http://www.w3.org/1999/xlink" xml:space="preserve" xmlns:serif="http://www.serif.com/" style="fill-rule:evenodd;clip-rule:evenodd;stroke-linejoin:round;stroke-miterlimit:1.41421;">
    <path d="M247.2,137.6C241,139.5 231.9,141.1 219.3,142.2C220.4,85.5 249.2,45.6 307.3,32.1C316.6,73.7 281.2,126.2 247.2,137.6ZM368.5,210.3C374.9,200.9 385.1,190.4 399.1,178.6C376.8,151 351,134.3 314,134.3C278.6,134.3 248.8,152.5 227,152.5C208.5,152.5 175.1,136.4 142.5,136.4C72.9,136.4 36,204.5 36,275.4C36,354.2 95.7,480 156.2,480C180,480 201.4,462 229.7,462C259,462 282.5,479.2 310,479.2C356,479.2 398.6,401.7 412,359.5C365.2,345.2 327.6,269.3 368.5,210.3Z" style="fill:white;fill-rule:nonzero;"/>
</svg>
