<?xml version="1.0" encoding="UTF-8" standalone="no"?>
<!DOCTYPE svg PUBLIC "-//W3C//DTD SVG 1.1//EN" "http://www.w3.org/Graphics/SVG/1.1/DTD/svg11.dtd">
<svg width="100%" height="100%" viewBox="0 0 505 505" version="1.1" xmlns="http://www.w3.org/2000/svg" xmlns:xlink="http://www.w3.org/1999/xlink" xml:space="preserve" xmlns:serif="http://www.serif.com/" style="fill-rule:evenodd;clip-rule:evenodd;stroke-linejoin:round;stroke-miterlimit:1.41421;">
    <g transform="matrix(1.24138,0,0,1.08633,-91.9655,-2.67626)">
        <path d="M265,31C265.69,47.306 309.817,52.164 321.171,65.975C336.856,85.055 333.358,127.803 343.998,153.335C355.868,181.821 381,194.286 381,239.5C381,348.904 371.074,412.045 311.427,420.633C308.336,421.078 285.924,424.324 273.056,428.669C211.658,449.4 142.821,351.419 190.889,246.864C210.526,204.15 226.004,169.324 230.117,131.589C232.017,114.153 222.621,86.684 225.998,74.411C240.5,21.716 264.274,13.847 265,31Z" style="fill:white;"/>
    </g>
    <path d="M190,140L240,110L300,135L230,175M45,390L95,370L125,340L205,460L175,490L50,470M330,360L420,360L440,410L460,435L350,495L330,495" style="fill:rgb(255,165,0);fill-rule:nonzero;"/>
    <path d="M456.698,412.044C443.346,406.565 432.345,397.937 433.143,381.413C433.92,364.911 421.344,353.975 421.344,353.975C421.344,353.975 432.345,317.844 422.121,288.012C411.918,258.136 378.16,210.271 352.253,174.161C326.39,138.03 348.349,96.398 324.815,43.032C301.238,-10.334 240.02,-7.206 207.039,15.572C174.036,38.308 184.239,94.823 185.792,121.571C187.367,148.232 186.504,167.236 183.462,174.139C180.356,181.042 159.13,206.366 144.98,227.548C130.851,248.731 120.648,292.713 110.402,310.768C100.199,328.823 107.274,345.303 107.274,345.303C107.274,345.303 100.199,347.633 94.698,359.475C89.197,371.209 78.218,376.71 58.589,380.593C38.96,384.519 38.96,397.138 43.662,411.267C48.386,425.374 43.684,433.269 38.183,451.281C32.682,469.293 60.164,474.836 86.847,477.921C113.552,481.092 143.384,498.37 168.536,501.498C193.623,504.647 201.496,484.241 201.496,484.241C201.496,484.241 229.754,477.921 259.565,477.187C289.419,476.389 317.634,483.464 317.634,483.464C317.634,483.464 323.135,496.018 333.338,501.497C343.563,506.998 365.543,507.796 379.672,492.912C393.822,477.963 431.507,459.154 452.689,447.355C473.933,435.535 470.05,417.502 456.698,412.044ZM272.958,65.812C286.418,65.812 297.29,79.164 297.29,95.623C297.29,107.314 291.833,117.388 283.873,122.284C281.845,121.4 279.71,120.494 277.445,119.523C282.234,117.15 285.642,111.046 285.642,103.927C285.642,94.652 279.904,87.123 272.807,87.123C265.797,87.123 260.037,94.673 260.037,103.927C260.037,107.357 260.857,110.657 262.259,113.353C258.074,111.692 254.213,110.139 251.193,108.996C249.554,104.984 248.626,100.454 248.626,95.622C248.626,79.164 259.498,65.812 272.958,65.812ZM271.211,128.669C277.941,130.999 285.426,135.378 284.65,139.713C283.852,144.07 280.314,144.07 271.211,149.636C262.087,155.158 242.328,167.41 236.007,168.208C229.644,169.006 226.106,165.447 219.376,161.111C212.646,156.754 199.984,146.421 203.176,140.921C203.176,140.921 213.034,133.371 217.37,129.424C221.727,125.455 232.815,115.985 239.545,117.215C246.275,118.358 264.481,126.296 271.211,128.669ZM210.532,70.536C221.145,70.536 229.773,83.176 229.773,98.772C229.773,101.641 229.493,104.294 228.953,106.861C226.365,107.745 223.733,109.169 221.188,111.326C219.894,112.383 218.75,113.375 217.65,114.367C219.333,111.218 220.001,106.731 219.246,102.007C217.822,93.487 212.149,87.274 206.519,88.159C200.911,89.13 197.524,96.787 198.948,105.351C200.393,113.915 206.045,120.127 211.653,119.199C211.977,119.134 212.279,119.048 212.602,118.94C209.863,121.572 207.339,123.837 204.772,125.756C197.007,122.154 191.312,111.433 191.312,98.749C191.313,83.155 199.919,70.536 210.532,70.536ZM189.803,467.244C187.301,478.504 174.121,486.679 174.121,486.679C162.171,490.432 128.952,476.023 113.895,469.703C98.86,463.469 60.572,461.528 55.546,455.962C50.563,450.267 58.048,437.735 59.968,425.849C61.823,413.877 56.215,406.392 58.07,398.217C59.968,390.085 84.429,390.085 93.813,384.455C103.239,378.782 105.116,362.474 112.644,358.096C120.172,353.674 133.956,369.356 139.607,378.178C145.237,386.914 166.57,424.577 175.35,433.982C184.151,443.387 192.305,455.984 189.803,467.244ZM328.654,357.837C326.389,368.903 326.389,408.895 326.389,408.895C326.389,408.895 302.057,442.61 264.33,448.132C226.646,453.654 207.793,449.685 207.793,449.685L186.61,425.375C186.61,425.375 203.068,422.981 200.739,406.501C198.366,390.021 150.501,367.242 141.851,346.815C133.244,326.431 140.298,291.853 151.299,274.574C162.279,257.317 169.311,219.655 180.312,207.057C191.313,194.546 199.92,167.841 195.994,156.042C195.994,156.042 219.549,184.321 236.008,179.64C252.488,174.916 289.439,147.413 294.896,152.159C300.375,156.883 347.486,260.487 352.166,293.469C356.89,326.429 349.017,351.538 349.017,351.538C349.017,351.538 330.983,346.836 328.654,357.837ZM449.148,431.803C441.814,438.533 401.002,455.013 388.771,467.869C376.605,480.617 360.707,490.993 350.979,487.973C341.186,484.888 332.665,471.493 336.936,451.95C341.185,432.472 344.874,411.117 344.27,398.907C343.666,386.698 341.185,370.196 344.27,367.759C347.312,365.386 352.165,366.573 352.165,366.573C352.165,366.573 349.771,389.718 363.77,395.866C377.769,401.906 397.917,393.428 404.021,387.281C410.147,381.22 414.418,372.074 414.418,372.074C414.418,372.074 420.501,375.159 419.897,384.887C419.293,394.637 424.146,408.701 433.336,413.555C442.461,418.365 456.482,425.116 449.148,431.803Z" style="fill-rule:nonzero;"/>
</svg>
