<svg clip-rule="evenodd" fill-rule="evenodd" stroke-linejoin="round" stroke-miterlimit="1.41421" viewBox="0 0 340 90" xmlns="http://www.w3.org/2000/svg"><g fill="#e41656"><path d="m45.099 1.756-1.756-1.756c-.002 0-.003 0-.004 0l-1.756 1.756v6.683l1.756 1.756h.004l1.756-1.756c0-1.87 0-4.813 0-6.683z" fill-opacity=".27451"/><path d="m44.548 39.175-1.206-1.206c-.001 0-.002 0-.002 0l-1.206 1.206v4.619l1.206 1.206h.002l1.206-1.206c0-1.291 0-3.328 0-4.619z" fill-opacity=".52549"/><path d="m45.099 15.643-1.756-1.756c-.002 0-.003 0-.004 0l-1.756 1.756v13.714l1.756 1.756h.004l1.756-1.756c0-3.304 0-10.41 0-13.714z"/><path d="m19.345 8.982-2.453-.389c-.001.001-.002.002-.003.002l-.389 2.453c1.1 1.513 2.83 3.894 3.929 5.407l2.453.388c.001 0 .002-.001.003-.002l.388-2.452c-1.099-1.513-2.829-3.894-3.928-5.407z" fill-opacity=".27451"/><path d="m40.91 39.577-1.683-.267c0 .001-.001.001-.001.002l-.268 1.692c.755 1.044 1.944 2.687 2.699 3.731l1.682.266c.001 0 .001-.001.002-.001l.268-1.692c-.756-1.044-1.945-2.688-2.699-3.731z" fill-opacity=".52549"/><path d="m27.507 20.216-2.453-.388c-.001 0-.002.001-.003.002l-.388 2.453c1.942 2.673 6.119 8.422 8.061 11.095l2.453.388c.001 0 .002-.001.003-.002l.388-2.452c-1.942-2.674-6.119-8.423-8.061-11.096z"/><path d="m2.756 29.965-2.212 1.128c-.001.001-.001.002-.001.003l1.127 2.213c1.779.578 4.578 1.487 6.356 2.065l2.213-1.128c0-.001.001-.002.001-.003l-1.127-2.213c-1.779-.578-4.578-1.487-6.357-2.065z" fill-opacity=".27451"/><path d="m38.209 42.051-1.527.777v.002l.777 1.525c1.219.398 3.135 1.023 4.356 1.422l1.526-.778c0-.001 0-.001.001-.002l-.778-1.525c-1.219-.398-3.134-1.023-4.355-1.421z" fill-opacity=".52549"/><path d="m15.964 34.256-2.213 1.128c-.001.001-.001.002-.001.003l1.127 2.213c3.143 1.021 9.901 3.217 13.043 4.238l2.213-1.128c0-.001.001-.002.001-.003l-1.127-2.213c-3.143-1.021-9.901-3.217-13.043-4.238z"/><path d="m1.67 56.691-1.127 2.213c0 .001 0 .002.001.003l2.212 1.128c1.779-.578 4.578-1.487 6.357-2.065l1.127-2.213c0-.001-.001-.002-.001-.003l-2.213-1.128c-1.778.578-4.577 1.487-6.356 2.065z" fill-opacity=".27451"/><path d="m37.459 45.645-.777 1.525v.002l1.527.777c1.221-.398 3.136-1.023 4.355-1.421l.778-1.525c-.001-.001-.001-.001-.001-.002l-1.526-.778c-1.221.399-3.137 1.024-4.356 1.422z" fill-opacity=".52549"/><path d="m14.877 52.4-1.127 2.213c0 .001 0 .002.001.003l2.213 1.128c3.142-1.021 9.9-3.217 13.043-4.238l1.127-2.213c0-.001-.001-.002-.001-.003l-2.213-1.128c-3.142 1.021-9.9 3.217-13.043 4.238z"/><path d="m16.5 78.952.389 2.453c.001 0 .002.001.003.002l2.453-.389c1.099-1.513 2.829-3.894 3.928-5.407l-.388-2.452c-.001-.001-.002-.002-.003-.002l-2.453.388c-1.099 1.513-2.829 3.894-3.929 5.407z" fill-opacity=".27451"/><path d="m38.958 48.996.268 1.692c0 .001.001.001.001.002l1.683-.267c.754-1.043 1.943-2.687 2.699-3.731l-.268-1.692c-.001 0-.001-.001-.002-.001l-1.682.266c-.755 1.044-1.944 2.687-2.699 3.731z" fill-opacity=".52549"/><path d="m24.663 67.717.388 2.453c.001.001.002.002.003.002l2.453-.388c1.942-2.673 6.119-8.422 8.061-11.096l-.388-2.452c-.001-.001-.002-.002-.003-.002l-2.453.388c-1.942 2.673-6.119 8.422-8.061 11.095z"/><path d="m41.583 88.244 1.756 1.756h.004l1.756-1.756c0-1.87 0-4.813 0-6.683l-1.756-1.756c-.002 0-.003 0-.004 0l-1.756 1.756z" fill-opacity=".27451"/><path d="m42.134 50.825 1.206 1.206h.002l1.206-1.206c0-1.291 0-3.328 0-4.619l-1.206-1.206c-.001 0-.002 0-.002 0l-1.206 1.206z" fill-opacity=".52549"/><path d="m41.583 74.357 1.756 1.756h.004l1.756-1.756c0-3.304 0-10.41 0-13.714l-1.756-1.756c-.002 0-.003 0-.004 0l-1.756 1.756z"/><path d="m67.337 81.018 2.453.389c.001-.001.002-.002.003-.002l.388-2.453c-1.099-1.513-2.829-3.894-3.928-5.407l-2.453-.388c-.001 0-.002.001-.003.002l-.389 2.452c1.1 1.513 2.83 3.894 3.929 5.407z" fill-opacity=".27451"/><path d="m45.772 50.423 1.682.267.002-.002.268-1.692c-.756-1.044-1.944-2.687-2.699-3.731l-1.683-.266s-.001.001-.001.001l-.268 1.692c.755 1.044 1.944 2.688 2.699 3.731z" fill-opacity=".52549"/><path d="m59.174 69.784 2.453.388c.001 0 .002-.001.003-.002l.389-2.453c-1.943-2.673-6.119-8.422-8.062-11.095l-2.452-.388c-.001 0-.002.001-.003.002l-.389 2.452c1.942 2.674 6.119 8.423 8.061 11.096z"/><path d="m83.925 60.035 2.213-1.128c0-.001 0-.002.001-.003l-1.128-2.213c-1.778-.578-4.577-1.487-6.356-2.065l-2.212 1.128c-.001.001-.001.002-.002.003l1.128 2.213c1.778.578 4.577 1.487 6.356 2.065z" fill-opacity=".27451"/><path d="m48.473 47.949 1.526-.777c.001-.001.001-.001.001-.002l-.777-1.525c-1.22-.398-3.135-1.023-4.356-1.422l-1.527.778v.002l.777 1.525c1.219.398 3.135 1.023 4.356 1.421z" fill-opacity=".52549"/><path d="m70.718 55.744 2.213-1.128c0-.001 0-.002.001-.003l-1.128-2.213c-3.142-1.021-9.9-3.217-13.043-4.238l-2.213 1.128c0 .001 0 .002-.001.003l1.128 2.213c3.142 1.021 9.9 3.217 13.043 4.238z"/><path d="m85.011 33.309 1.128-2.213c-.001-.001-.001-.002-.001-.003l-2.213-1.128c-1.779.578-4.578 1.487-6.356 2.065l-1.128 2.213c.001.001.001.002.002.003l2.212 1.128c1.779-.578 4.578-1.487 6.356-2.065z" fill-opacity=".27451"/><path d="m49.223 44.355.777-1.525c0-.001 0-.001-.001-.002l-1.526-.777c-1.221.398-3.137 1.023-4.356 1.421l-.777 1.525v.002l1.527.778c1.221-.399 3.136-1.024 4.356-1.422z" fill-opacity=".52549"/><path d="m71.804 37.6 1.128-2.213c-.001-.001-.001-.002-.001-.003l-2.213-1.128c-3.143 1.021-9.901 3.217-13.043 4.238l-1.128 2.213c.001.001.001.002.001.003l2.213 1.128c3.143-1.021 9.901-3.217 13.043-4.238z"/><path d="m70.181 11.048-.388-2.453c-.001 0-.002-.001-.003-.002l-2.453.389c-1.099 1.513-2.829 3.894-3.929 5.407l.389 2.452c.001.001.002.002.003.002l2.453-.388c1.099-1.513 2.829-3.894 3.928-5.407z" fill-opacity=".27451"/><path d="m47.724 41.004-.268-1.692c-.001-.001-.001-.001-.002-.002l-1.682.267c-.755 1.043-1.944 2.687-2.699 3.731l.268 1.692s.001.001.001.001l1.683-.266c.755-1.044 1.943-2.687 2.699-3.731z" fill-opacity=".52549"/><path d="m62.019 22.283-.389-2.453c-.001-.001-.002-.002-.003-.002l-2.453.388c-1.942 2.673-6.119 8.422-8.061 11.096l.389 2.452c.001.001.002.002.003.002l2.452-.388c1.943-2.673 6.119-8.422 8.062-11.095z"/><g fill-rule="nonzero"><path d="m102.277 26.797h17.978v4.295h-13.151v9.412h13.151v4.295h-13.151v15.709h-4.827z"/><path d="m138.402 38.308h4.947l-15.71 33.518h-4.898l7.553-16.071-8.591-17.447h4.995l5.985 12.524z"/><path d="m151.167 38.308v5.091l.242-.386c2.123-3.426 4.247-5.14 6.37-5.14 1.657 0 3.387.837 5.188 2.51l-2.316 3.861c-1.528-1.448-2.944-2.172-4.247-2.172-1.416 0-2.643.676-3.68 2.027-1.038 1.352-1.557 2.952-1.557 4.802v11.607h-4.416v-22.2z"/><path d="m183.962 49.794h-15.613c.112 2.124.824 3.813 2.135 5.068s3.005 1.882 5.08 1.882c2.896 0 5.566-.901 8.012-2.703v4.296c-1.352.901-2.691 1.544-4.018 1.93-1.328.386-2.884.579-4.67.579-2.445 0-4.424-.506-5.936-1.52s-2.723-2.377-3.632-4.09c-.909-1.714-1.363-3.696-1.363-5.949 0-3.378.957-6.125 2.871-8.24 1.915-2.116 4.4-3.174 7.457-3.174 2.944 0 5.293 1.03 7.046 3.089 1.754 2.059 2.631 4.818 2.631 8.277zm-15.517-2.63h11.173c-.113-1.754-.635-3.105-1.569-4.054-.933-.949-2.187-1.424-3.764-1.424s-2.868.475-3.873 1.424c-1.006.949-1.661 2.3-1.967 4.054z"/><path d="m215.694 38.308h4.706l-9.798 22.587h-1.375l-6.588-15.469-6.467 15.469h-1.424l-9.894-22.587h4.706l5.816 13.465 5.646-13.465h3.258l5.623 13.465z"/><path d="m233.141 38.259c3.378 0 6.186 1.09 8.422 3.27s3.354 4.919 3.354 8.217c0 3.201-1.134 5.86-3.402 7.975-2.269 2.116-5.124 3.174-8.567 3.174-3.33 0-6.113-1.074-8.349-3.222-2.237-2.148-3.355-4.83-3.355-8.048 0-3.249 1.13-5.956 3.391-8.12 2.26-2.164 5.095-3.246 8.506-3.246zm-.241 3.958c-2.108 0-3.837.692-5.188 2.075-1.352 1.384-2.028 3.145-2.028 5.285 0 2.124.692 3.857 2.076 5.2 1.383 1.344 3.161 2.015 5.333 2.015 2.156 0 3.921-.679 5.297-2.039 1.375-1.359 2.063-3.101 2.063-5.224 0-2.108-.716-3.853-2.148-5.237-1.432-1.383-3.233-2.075-5.405-2.075z"/><path d="m254.497 38.308v5.091l.241-.386c2.124-3.426 4.248-5.14 6.371-5.14 1.657 0 3.387.837 5.188 2.51l-2.316 3.861c-1.529-1.448-2.944-2.172-4.247-2.172-1.416 0-2.643.676-3.68 2.027-1.038 1.352-1.557 2.952-1.557 4.802v11.607h-4.416v-22.2z"/><path d="m283.792 38.308h5.237l-9.484 10.883 11.414 11.317h-5.888l-11.124-11.317zm-14.43-11.511h4.392v33.711h-4.392z"/><path d="m291.949 58.916v-4.73c1.239.869 2.505 1.573 3.8 2.112 1.296.538 2.385.808 3.27.808.917 0 1.706-.225 2.365-.676.66-.45.989-.989.989-1.617 0-.643-.213-1.178-.639-1.604-.426-.427-1.347-1.042-2.763-1.846-2.831-1.577-4.685-2.924-5.562-4.042s-1.315-2.337-1.315-3.656c0-1.705.663-3.097 1.99-4.175 1.328-1.078 3.037-1.617 5.128-1.617 2.172 0 4.4.612 6.685 1.834v4.344c-2.607-1.577-4.738-2.365-6.395-2.365-.853 0-1.54.181-2.063.543s-.785.841-.785 1.436c0 .515.238 1.005.712 1.472.475.466 1.307 1.029 2.498 1.689l1.568.893c3.7 2.091 5.551 4.408 5.551 6.95 0 1.818-.712 3.31-2.136 4.476s-3.254 1.75-5.49 1.75c-1.319 0-2.493-.141-3.523-.423-1.03-.281-2.325-.8-3.885-1.556z"/></g></g></svg>