<?xml version="1.0" encoding="UTF-8" standalone="no"?><!DOCTYPE svg PUBLIC "-//W3C//DTD SVG 1.1//EN" "http://www.w3.org/Graphics/SVG/1.1/DTD/svg11.dtd"><svg width="100%" height="100%" viewBox="0 0 340 90" version="1.1" xmlns="http://www.w3.org/2000/svg" xmlns:xlink="http://www.w3.org/1999/xlink" xml:space="preserve" xmlns:serif="http://www.serif.com/" style="fill-rule:evenodd;clip-rule:evenodd;stroke-linejoin:round;stroke-miterlimit:1.41421;"><path d="M45.099,1.756l-1.756,-1.756c-0.002,0 -0.003,0 -0.004,0l-1.756,1.756c0,1.87 0,4.813 0,6.683l1.756,1.756c0.001,0 0.002,0 0.004,0l1.756,-1.756c0,-1.87 0,-4.813 0,-6.683Z" style="fill:#e41656;fill-opacity:0.27451;"/><path d="M44.548,39.175l-1.206,-1.206c-0.001,0 -0.002,0 -0.002,0l-1.206,1.206c0,1.291 0,3.328 0,4.619l1.206,1.206c0,0 0.001,0 0.002,0l1.206,-1.206c0,-1.291 0,-3.328 0,-4.619Z" style="fill:#e41656;fill-opacity:0.52549;"/><path d="M45.099,15.643l-1.756,-1.756c-0.002,0 -0.003,0 -0.004,0l-1.756,1.756c0,3.304 0,10.41 0,13.714l1.756,1.756c0.001,0 0.002,0 0.004,0l1.756,-1.756c0,-3.304 0,-10.41 0,-13.714Z" style="fill:#e41656;"/><path d="M19.345,8.982l-2.453,-0.389c-0.001,0.001 -0.002,0.002 -0.003,0.002l-0.389,2.453c1.1,1.513 2.83,3.894 3.929,5.407l2.453,0.388c0.001,0 0.002,-0.001 0.003,-0.002l0.388,-2.452c-1.099,-1.513 -2.829,-3.894 -3.928,-5.407Z" style="fill:#e41656;fill-opacity:0.27451;"/><path d="M40.91,39.577l-1.683,-0.267c0,0.001 -0.001,0.001 -0.001,0.002l-0.268,1.692c0.755,1.044 1.944,2.687 2.699,3.731l1.682,0.266c0.001,0 0.001,-0.001 0.002,-0.001l0.268,-1.692c-0.756,-1.044 -1.945,-2.688 -2.699,-3.731Z" style="fill:#e41656;fill-opacity:0.52549;"/><path d="M27.507,20.216l-2.453,-0.388c-0.001,0 -0.002,0.001 -0.003,0.002l-0.388,2.453c1.942,2.673 6.119,8.422 8.061,11.095l2.453,0.388c0.001,0 0.002,-0.001 0.003,-0.002l0.388,-2.452c-1.942,-2.674 -6.119,-8.423 -8.061,-11.096Z" style="fill:#e41656;"/><path d="M2.756,29.965l-2.212,1.128c-0.001,0.001 -0.001,0.002 -0.001,0.003l1.127,2.213c1.779,0.578 4.578,1.487 6.356,2.065l2.213,-1.128c0,-0.001 0.001,-0.002 0.001,-0.003l-1.127,-2.213c-1.779,-0.578 -4.578,-1.487 -6.357,-2.065Z" style="fill:#e41656;fill-opacity:0.27451;"/><path d="M38.209,42.051l-1.527,0.777c0,0.001 0,0.001 0,0.002l0.777,1.525c1.219,0.398 3.135,1.023 4.356,1.422l1.526,-0.778c0,-0.001 0,-0.001 0.001,-0.002l-0.778,-1.525c-1.219,-0.398 -3.134,-1.023 -4.355,-1.421Z" style="fill:#e41656;fill-opacity:0.52549;"/><path d="M15.964,34.256l-2.213,1.128c-0.001,0.001 -0.001,0.002 -0.001,0.003l1.127,2.213c3.143,1.021 9.901,3.217 13.043,4.238l2.213,-1.128c0,-0.001 0.001,-0.002 0.001,-0.003l-1.127,-2.213c-3.143,-1.021 -9.901,-3.217 -13.043,-4.238Z" style="fill:#e41656;"/><path d="M1.67,56.691l-1.127,2.213c0,0.001 0,0.002 0.001,0.003l2.212,1.128c1.779,-0.578 4.578,-1.487 6.357,-2.065l1.127,-2.213c0,-0.001 -0.001,-0.002 -0.001,-0.003l-2.213,-1.128c-1.778,0.578 -4.577,1.487 -6.356,2.065Z" style="fill:#e41656;fill-opacity:0.27451;"/><path d="M37.459,45.645l-0.777,1.525c0,0.001 0,0.001 0,0.002l1.527,0.777c1.221,-0.398 3.136,-1.023 4.355,-1.421l0.778,-1.525c-0.001,-0.001 -0.001,-0.001 -0.001,-0.002l-1.526,-0.778c-1.221,0.399 -3.137,1.024 -4.356,1.422Z" style="fill:#e41656;fill-opacity:0.52549;"/><path d="M14.877,52.4l-1.127,2.213c0,0.001 0,0.002 0.001,0.003l2.213,1.128c3.142,-1.021 9.9,-3.217 13.043,-4.238l1.127,-2.213c0,-0.001 -0.001,-0.002 -0.001,-0.003l-2.213,-1.128c-3.142,1.021 -9.9,3.217 -13.043,4.238Z" style="fill:#e41656;"/><path d="M16.5,78.952l0.389,2.453c0.001,0 0.002,0.001 0.003,0.002l2.453,-0.389c1.099,-1.513 2.829,-3.894 3.928,-5.407l-0.388,-2.452c-0.001,-0.001 -0.002,-0.002 -0.003,-0.002l-2.453,0.388c-1.099,1.513 -2.829,3.894 -3.929,5.407Z" style="fill:#e41656;fill-opacity:0.27451;"/><path d="M38.958,48.996l0.268,1.692c0,0.001 0.001,0.001 0.001,0.002l1.683,-0.267c0.754,-1.043 1.943,-2.687 2.699,-3.731l-0.268,-1.692c-0.001,0 -0.001,-0.001 -0.002,-0.001l-1.682,0.266c-0.755,1.044 -1.944,2.687 -2.699,3.731Z" style="fill:#e41656;fill-opacity:0.52549;"/><path d="M24.663,67.717l0.388,2.453c0.001,0.001 0.002,0.002 0.003,0.002l2.453,-0.388c1.942,-2.673 6.119,-8.422 8.061,-11.096l-0.388,-2.452c-0.001,-0.001 -0.002,-0.002 -0.003,-0.002l-2.453,0.388c-1.942,2.673 -6.119,8.422 -8.061,11.095Z" style="fill:#e41656;"/><path d="M41.583,88.244l1.756,1.756c0.001,0 0.002,0 0.004,0l1.756,-1.756c0,-1.87 0,-4.813 0,-6.683l-1.756,-1.756c-0.002,0 -0.003,0 -0.004,0l-1.756,1.756c0,1.87 0,4.813 0,6.683Z" style="fill:#e41656;fill-opacity:0.27451;"/><path d="M42.134,50.825l1.206,1.206c0,0 0.001,0 0.002,0l1.206,-1.206c0,-1.291 0,-3.328 0,-4.619l-1.206,-1.206c-0.001,0 -0.002,0 -0.002,0l-1.206,1.206c0,1.291 0,3.328 0,4.619Z" style="fill:#e41656;fill-opacity:0.52549;"/><path d="M41.583,74.357l1.756,1.756c0.001,0 0.002,0 0.004,0l1.756,-1.756c0,-3.304 0,-10.41 0,-13.714l-1.756,-1.756c-0.002,0 -0.003,0 -0.004,0l-1.756,1.756c0,3.304 0,10.41 0,13.714Z" style="fill:#e41656;"/><path d="M67.337,81.018l2.453,0.389c0.001,-0.001 0.002,-0.002 0.003,-0.002l0.388,-2.453c-1.099,-1.513 -2.829,-3.894 -3.928,-5.407l-2.453,-0.388c-0.001,0 -0.002,0.001 -0.003,0.002l-0.389,2.452c1.1,1.513 2.83,3.894 3.929,5.407Z" style="fill:#e41656;fill-opacity:0.27451;"/><path d="M45.772,50.423l1.682,0.267c0.001,-0.001 0.001,-0.001 0.002,-0.002l0.268,-1.692c-0.756,-1.044 -1.944,-2.687 -2.699,-3.731l-1.683,-0.266c0,0 -0.001,0.001 -0.001,0.001l-0.268,1.692c0.755,1.044 1.944,2.688 2.699,3.731Z" style="fill:#e41656;fill-opacity:0.52549;"/><path d="M59.174,69.784l2.453,0.388c0.001,0 0.002,-0.001 0.003,-0.002l0.389,-2.453c-1.943,-2.673 -6.119,-8.422 -8.062,-11.095l-2.452,-0.388c-0.001,0 -0.002,0.001 -0.003,0.002l-0.389,2.452c1.942,2.674 6.119,8.423 8.061,11.096Z" style="fill:#e41656;"/><path d="M83.925,60.035l2.213,-1.128c0,-0.001 0,-0.002 0.001,-0.003l-1.128,-2.213c-1.778,-0.578 -4.577,-1.487 -6.356,-2.065l-2.212,1.128c-0.001,0.001 -0.001,0.002 -0.002,0.003l1.128,2.213c1.778,0.578 4.577,1.487 6.356,2.065Z" style="fill:#e41656;fill-opacity:0.27451;"/><path d="M48.473,47.949l1.526,-0.777c0.001,-0.001 0.001,-0.001 0.001,-0.002l-0.777,-1.525c-1.22,-0.398 -3.135,-1.023 -4.356,-1.422l-1.527,0.778c0,0.001 0,0.001 0,0.002l0.777,1.525c1.219,0.398 3.135,1.023 4.356,1.421Z" style="fill:#e41656;fill-opacity:0.52549;"/><path d="M70.718,55.744l2.213,-1.128c0,-0.001 0,-0.002 0.001,-0.003l-1.128,-2.213c-3.142,-1.021 -9.9,-3.217 -13.043,-4.238l-2.213,1.128c0,0.001 0,0.002 -0.001,0.003l1.128,2.213c3.142,1.021 9.9,3.217 13.043,4.238Z" style="fill:#e41656;"/><path d="M85.011,33.309l1.128,-2.213c-0.001,-0.001 -0.001,-0.002 -0.001,-0.003l-2.213,-1.128c-1.779,0.578 -4.578,1.487 -6.356,2.065l-1.128,2.213c0.001,0.001 0.001,0.002 0.002,0.003l2.212,1.128c1.779,-0.578 4.578,-1.487 6.356,-2.065Z" style="fill:#e41656;fill-opacity:0.27451;"/><path d="M49.223,44.355l0.777,-1.525c0,-0.001 0,-0.001 -0.001,-0.002l-1.526,-0.777c-1.221,0.398 -3.137,1.023 -4.356,1.421l-0.777,1.525c0,0.001 0,0.001 0,0.002l1.527,0.778c1.221,-0.399 3.136,-1.024 4.356,-1.422Z" style="fill:#e41656;fill-opacity:0.52549;"/><path d="M71.804,37.6l1.128,-2.213c-0.001,-0.001 -0.001,-0.002 -0.001,-0.003l-2.213,-1.128c-3.143,1.021 -9.901,3.217 -13.043,4.238l-1.128,2.213c0.001,0.001 0.001,0.002 0.001,0.003l2.213,1.128c3.143,-1.021 9.901,-3.217 13.043,-4.238Z" style="fill:#e41656;"/><path d="M70.181,11.048l-0.388,-2.453c-0.001,0 -0.002,-0.001 -0.003,-0.002l-2.453,0.389c-1.099,1.513 -2.829,3.894 -3.929,5.407l0.389,2.452c0.001,0.001 0.002,0.002 0.003,0.002l2.453,-0.388c1.099,-1.513 2.829,-3.894 3.928,-5.407Z" style="fill:#e41656;fill-opacity:0.27451;"/><path d="M47.724,41.004l-0.268,-1.692c-0.001,-0.001 -0.001,-0.001 -0.002,-0.002l-1.682,0.267c-0.755,1.043 -1.944,2.687 -2.699,3.731l0.268,1.692c0,0 0.001,0.001 0.001,0.001l1.683,-0.266c0.755,-1.044 1.943,-2.687 2.699,-3.731Z" style="fill:#e41656;fill-opacity:0.52549;"/><path d="M62.019,22.283l-0.389,-2.453c-0.001,-0.001 -0.002,-0.002 -0.003,-0.002l-2.453,0.388c-1.942,2.673 -6.119,8.422 -8.061,11.096l0.389,2.452c0.001,0.001 0.002,0.002 0.003,0.002l2.452,-0.388c1.943,-2.673 6.119,-8.422 8.062,-11.095Z" style="fill:#e41656;"/><path d="M102.277,26.797l17.978,0l0,4.295l-13.151,0l0,9.412l13.151,0l0,4.295l-13.151,0l0,15.709l-4.827,0l0,-33.711Z" style="fill:#e41656;fill-rule:nonzero;"/><path d="M138.402,38.308l4.947,0l-15.71,33.518l-4.898,0l7.553,-16.071l-8.591,-17.447l4.995,0l5.985,12.524l5.719,-12.524Z" style="fill:#e41656;fill-rule:nonzero;"/><path d="M151.167,38.308l0,5.091l0.242,-0.386c2.123,-3.426 4.247,-5.14 6.37,-5.14c1.657,0 3.387,0.837 5.188,2.51l-2.316,3.861c-1.528,-1.448 -2.944,-2.172 -4.247,-2.172c-1.416,0 -2.643,0.676 -3.68,2.027c-1.038,1.352 -1.557,2.952 -1.557,4.802l0,11.607l-4.416,0l0,-22.2l4.416,0Z" style="fill:#e41656;fill-rule:nonzero;"/><path d="M183.962,49.794l-15.613,0c0.112,2.124 0.824,3.813 2.135,5.068c1.311,1.255 3.005,1.882 5.08,1.882c2.896,0 5.566,-0.901 8.012,-2.703l0,4.296c-1.352,0.901 -2.691,1.544 -4.018,1.93c-1.328,0.386 -2.884,0.579 -4.67,0.579c-2.445,0 -4.424,-0.506 -5.936,-1.52c-1.512,-1.014 -2.723,-2.377 -3.632,-4.09c-0.909,-1.714 -1.363,-3.696 -1.363,-5.949c0,-3.378 0.957,-6.125 2.871,-8.24c1.915,-2.116 4.4,-3.174 7.457,-3.174c2.944,0 5.293,1.03 7.046,3.089c1.754,2.059 2.631,4.818 2.631,8.277l0,0.555Zm-15.517,-2.63l11.173,0c-0.113,-1.754 -0.635,-3.105 -1.569,-4.054c-0.933,-0.949 -2.187,-1.424 -3.764,-1.424c-1.577,0 -2.868,0.475 -3.873,1.424c-1.006,0.949 -1.661,2.3 -1.967,4.054Z" style="fill:#e41656;fill-rule:nonzero;"/><path d="M215.694,38.308l4.706,0l-9.798,22.587l-1.375,0l-6.588,-15.469l-6.467,15.469l-1.424,0l-9.894,-22.587l4.706,0l5.816,13.465l5.646,-13.465l3.258,0l5.623,13.465l5.791,-13.465Z" style="fill:#e41656;fill-rule:nonzero;"/><path d="M233.141,38.259c3.378,0 6.186,1.09 8.422,3.27c2.236,2.18 3.354,4.919 3.354,8.217c0,3.201 -1.134,5.86 -3.402,7.975c-2.269,2.116 -5.124,3.174 -8.567,3.174c-3.33,0 -6.113,-1.074 -8.349,-3.222c-2.237,-2.148 -3.355,-4.83 -3.355,-8.048c0,-3.249 1.13,-5.956 3.391,-8.12c2.26,-2.164 5.095,-3.246 8.506,-3.246Zm-0.241,3.958c-2.108,0 -3.837,0.692 -5.188,2.075c-1.352,1.384 -2.028,3.145 -2.028,5.285c0,2.124 0.692,3.857 2.076,5.2c1.383,1.344 3.161,2.015 5.333,2.015c2.156,0 3.921,-0.679 5.297,-2.039c1.375,-1.359 2.063,-3.101 2.063,-5.224c0,-2.108 -0.716,-3.853 -2.148,-5.237c-1.432,-1.383 -3.233,-2.075 -5.405,-2.075Z" style="fill:#e41656;fill-rule:nonzero;"/><path d="M254.497,38.308l0,5.091l0.241,-0.386c2.124,-3.426 4.248,-5.14 6.371,-5.14c1.657,0 3.387,0.837 5.188,2.51l-2.316,3.861c-1.529,-1.448 -2.944,-2.172 -4.247,-2.172c-1.416,0 -2.643,0.676 -3.68,2.027c-1.038,1.352 -1.557,2.952 -1.557,4.802l0,11.607l-4.416,0l0,-22.2l4.416,0Z" style="fill:#e41656;fill-rule:nonzero;"/><path d="M283.792,38.308l5.237,0l-9.484,10.883l11.414,11.317l-5.888,0l-11.124,-11.317l9.845,-10.883Zm-14.43,-11.511l4.392,0l0,33.711l-4.392,0l0,-33.711Z" style="fill:#e41656;fill-rule:nonzero;"/><path d="M291.949,58.916l0,-4.73c1.239,0.869 2.505,1.573 3.8,2.112c1.296,0.538 2.385,0.808 3.27,0.808c0.917,0 1.706,-0.225 2.365,-0.676c0.66,-0.45 0.989,-0.989 0.989,-1.617c0,-0.643 -0.213,-1.178 -0.639,-1.604c-0.426,-0.427 -1.347,-1.042 -2.763,-1.846c-2.831,-1.577 -4.685,-2.924 -5.562,-4.042c-0.877,-1.118 -1.315,-2.337 -1.315,-3.656c0,-1.705 0.663,-3.097 1.99,-4.175c1.328,-1.078 3.037,-1.617 5.128,-1.617c2.172,0 4.4,0.612 6.685,1.834l0,4.344c-2.607,-1.577 -4.738,-2.365 -6.395,-2.365c-0.853,0 -1.54,0.181 -2.063,0.543c-0.523,0.362 -0.785,0.841 -0.785,1.436c0,0.515 0.238,1.005 0.712,1.472c0.475,0.466 1.307,1.029 2.498,1.689l1.568,0.893c3.7,2.091 5.551,4.408 5.551,6.95c0,1.818 -0.712,3.31 -2.136,4.476c-1.424,1.166 -3.254,1.75 -5.49,1.75c-1.319,0 -2.493,-0.141 -3.523,-0.423c-1.03,-0.281 -2.325,-0.8 -3.885,-1.556Z" style="fill:#e41656;fill-rule:nonzero;"/></svg>